<svg xmlns="http://www.w3.org/2000/svg" width="68" height="48" viewBox="0 0 68 48">
  <path fill="#FFF" d="M43.7872,-3.81915446 C41.3326769,2.19808862 39.8422154,6.13936862 37.1102769,11.9780148 C38.7851077,13.7536455 40.8441846,15.8144455 44.1843692,18.1500763 C40.5934769,16.6725378 38.1458462,15.1932763 36.3159385,13.6537071 C32.8189538,20.9509378 27.3361231,31.3419532 16.2179692,51.3193071 C24.9539692,46.2758609 31.7273846,43.163984 38.0390154,41.976784 C37.7684923,40.8128455 37.6246154,39.5481071 37.6349538,38.2342609 L37.6418462,37.9585686 C37.7805538,32.3602917 40.6934154,28.055184 44.1438769,28.3472455 C47.5934769,28.6393071 50.2797538,33.4165378 50.1410462,39.0156763 C50.1143385,40.0701994 49.992,41.0833686 49.7843692,42.0241686 C56.0279385,43.2458302 62.7367385,46.3430609 71.3564308,51.3193071 C69.6566154,48.1901994 68.1342769,45.370384 66.6851692,42.6832455 C64.4029538,40.9145071 62.0233846,38.6133378 57.1677538,36.1209071 C60.5053538,36.9884763 62.8969846,37.9913071 64.7596308,39.109584 C50.0290462,11.6825071 48.8384,8.03561477 43.7872,-3.81915446 L43.7872,-3.819232 L43.7872,-3.81915446 Z"/>
</svg>
