<svg xmlns="http://www.w3.org/2000/svg" width="68" height="48" viewBox="0 0 68 48">
  <path fill="#FFF" d="M25.3614218,27.3465136 C26.0910701,27.4127836 26.8153606,27.4089138 27.5269869,27.2357412 C27.2717561,27.476635 26.9853521,27.7243009 26.6697232,27.9690645 C25.5270296,27.7944407 24.486136,27.3586067 25.3614218,27.3465136 Z M30.0593245,26.197721 C30.1231322,25.5916126 28.6053857,26.4602088 30.3647248,24.2906273 C30.2117811,24.9019854 28.7295916,26.5107974 30.3656989,25.5014122 C30.6623317,24.983118 30.9774735,24.4920271 31.0943731,23.9231443 C30.9604256,24.7211074 30.5805019,25.4928217 30.0593245,26.197721 Z M31.7902314,21.7764708 C31.8951992,20.2320876 31.4821002,20.720315 31.3432718,21.3097196 C31.5053189,21.3927612 31.6335053,22.3983284 31.7902314,21.7764708 Z M22.0424472,0.667673686 C22.5095586,0.750873954 23.0516805,0.814725323 22.9756957,0.925497774 C23.4866444,0.814241601 23.6025699,0.711692433 22.0424472,0.667673686 Z M22.9734182,0.922048292 L22.9506833,0.962680982 L22.6454544,0.989769441 L22.9734182,0.922048292 Z M37.5413862,22.3620573 L37.099116,23.2745606 C37.7488829,21.3469452 37.3738301,19.248474 37.4654014,17.4339669 L37.2846941,17.3862419 C37.1259055,12.8213392 33.0987142,7.96960892 29.5142801,6.32834387 C26.4252082,4.92999941 21.6693427,4.69041957 19.4721172,5.7437118 C19.774595,5.48122393 20.979635,5.37097903 20.6167592,5.16862474 C17.1765013,5.50365471 17.9446291,6.34409314 15.3075689,7.00413082 C14.5842526,7.68850828 17.419068,6.45529255 15.8935282,7.34250154 C14.479043,7.72477933 13.8200215,7.1010127 11.724109,9.22620993 C11.9106613,9.52210535 13.0543291,8.35188671 12.1001361,9.5264006 C10.1303778,9.28682077 5.87718061,13.9419238 4.97413119,15.4853525 L5.44660041,15.5650533 C4.67116638,17.468329 3.65170444,18.6819774 3.51288616,19.8221293 C3.31269559,22.625977 2.31320399,27.7382861 3.70089969,29.3103498 L3.56646514,30.6227892 C3.75691408,30.9950447 3.90060317,31.374459 4.13732487,31.7238065 L3.82851509,31.7481463 C5.28829887,36.2595968 5.396431,31.8321424 7.32381319,36.5177894 C7.04422831,36.4256801 6.76172093,36.3249802 6.35452065,35.7861642 C6.30581249,36.197077 6.94729905,37.4302927 7.71055604,38.3924301 L7.38762089,38.7541861 C7.81235611,39.5101511 8.20396977,39.6757571 8.49865419,39.9396767 C6.91271625,39.0916023 9.96964085,42.7349339 10.2458162,43.1992988 L10.489357,42.7740685 C10.4542871,43.3854266 10.9369851,44.1747992 11.842957,45.2700895 L12.5969594,45.2409772 C12.9077175,45.8427903 14.0440791,46.9299673 14.7332996,46.9810331 L14.2749558,47.5675742 C16.0050699,48.1044812 15.1151717,48.2796322 17.2417703,49.0169845 L16.8126513,48.2739052 C17.8968951,49.1959535 18.2324944,50.0025071 19.7633921,50.7088381 C21.885607,51.4337818 22.1671402,51.1469542 24.3458565,51.7573578 C22.4993299,51.7048602 20.3284068,51.7244275 18.8686231,51.2128148 C8.90926404,48.5698006 -0.202085777,37.122466 0.464241955,25.3324655 C0.310811227,22.9452577 0.706808629,19.962441 0.301069593,19.3682639 C0.870468072,17.5518479 1.52948958,15.3369275 2.85630006,12.7010721 C2.76034497,12.5244893 3.07451265,13.2174573 3.74912077,12.0911457 C4.15826938,11.2106182 4.49192033,10.2408449 5.00773982,9.38513441 L5.27271225,9.32452357 C5.53817177,7.81450245 8.86932334,5.49840496 9.86053455,4.33248157 L9.92872599,4.77775645 C12.0918557,2.79048466 15.9466201,1.45847804 18.117056,0.509703714 C17.5471705,1.12774333 19.39321,0.448138378 20.7239172,0.368914767 C20.3040528,0.59894959 19.888085,0.77791859 19.494523,1.04851972 C21.0911767,0.675309697 21.0147049,1.20123993 22.6464285,0.990295138 C22.0741076,1.071905 21.3785549,1.29430381 21.4896095,1.37925443 C23.3137304,1.58638122 23.5923411,0.826598159 25.2800791,1.37734543 L25.1734083,0.889117996 C27.5177324,1.71857966 28.0087107,1.57779071 30.5561479,2.90168407 C31.451404,2.94415938 31.5400528,2.36191356 32.8917045,2.90072957 C33.1294003,3.30973339 32.8376384,3.38513899 34.4966386,4.35300335 C34.6817296,4.2809385 34.1663972,3.82134611 33.7582228,3.45529484 C37.0942452,5.20298679 40.7205683,8.92745101 41.8262437,12.9134486 C40.7911951,11.0435805 41.7195728,13.8669954 41.3640031,13.7204795 C41.8252695,14.9398549 42.2032449,16.200274 42.4370441,17.5012593 C42.1306697,16.4341268 41.4628807,13.8579277 40.2919364,12.1956636 C40.1964684,13.2685231 38.7829573,11.4554478 39.5554689,13.8164069 C40.1443506,14.65255 39.675291,12.9683324 40.4010427,14.454491 C40.4122456,15.160822 40.6874467,15.8628577 40.8472095,16.7834743 C40.5987978,16.7433852 40.2933976,15.7659758 40.110742,16.0380087 C40.3625632,17.1958189 40.7765826,17.7995409 40.9343971,17.8883096 C40.8535415,18.0820733 40.6440964,17.7074316 40.6299711,18.4948952 C40.7264132,20.3079705 41.148713,19.5429376 41.3474424,19.62932 C41.1457906,20.5213015 40.3304158,21.571253 40.7327453,23.1060911 C40.6173069,22.641249 40.3922752,22.1730661 40.2208225,21.7325637 C40.0620338,23.043094 40.5169681,23.2984232 39.8993485,24.8867134 C40.3445412,23.4549614 40.295833,22.1630438 39.8764557,22.7853787 C40.0620338,24.8203755 38.2335292,26.3828942 38.4312844,27.669562 L37.8993912,26.951777 C36.4590907,28.9977506 37.8662696,28.0785659 36.8852871,29.628676 C37.2447534,29.0197042 36.6967865,29.3776422 37.164872,28.688015 C36.8541139,28.7056732 35.7786376,29.9837505 34.7942455,30.7349431 C30.9243816,33.7745526 26.3044119,34.1716251 21.832028,32.5346554 C21.6581398,32.6744898 22.631329,33.4218643 23.346852,33.7826659 C25.0506637,34.399751 26.9770717,34.4240908 28.493357,34.3692069 C25.2162714,35.7121903 18.957759,33.0052245 16.9105547,29.4139132 C17.3737694,29.5127041 18.9601944,31.938092 20.1476995,32.3323011 C19.4458148,31.7810765 18.9027188,31.0795181 18.3995634,30.3579151 C19.3479114,31.426002 20.5013208,32.2984163 21.760914,32.8763668 C21.6800585,32.5761762 22.1086904,32.5165198 21.5120153,32.1223108 C17.7210586,29.2755105 15.4799958,26.8553724 16.2578653,21.2538813 C16.8360312,20.8262647 16.989949,18.4896454 18.3167595,17.6711605 C19.1253151,15.9206051 21.5480593,14.3079751 24.1378726,14.267886 C26.7817519,14.125188 29.012586,15.6500039 30.133361,17.0884375 C28.0929758,15.2252508 24.7535439,14.658277 21.9050902,16.0399177 C18.9928289,17.3232448 17.2661243,20.4664177 17.5179456,23.5957503 C17.6260777,23.4396894 17.7220328,23.536094 17.7741505,23.1499982 C17.6850146,29.2320807 24.4632432,33.689602 29.3428274,31.4403196 L29.4007901,31.5663137 C31.3793159,31.03752 31.123598,30.6013129 32.4172869,29.7308077 C32.316461,29.935071 31.5458978,30.4562287 32.0052158,30.466251 C32.6345254,30.302554 34.6008741,28.5100005 35.5672441,27.6681303 C36.0104885,26.7312872 35.3314966,27.1612901 35.9505774,25.9834354 L36.7070152,25.6130889 C37.1273667,24.4218712 37.5935039,23.7489478 37.5413862,22.3620573 Z M15.8078018,28.522409 C16.5301439,29.8887776 16.9227318,30.306372 17.4512154,31.3171889 C16.7166962,30.7187166 16.2603007,29.8892549 15.6850572,29.1237448 L15.8078018,28.522409 Z M17.1630008,28.4699114 L17.4304993,29.24783 C17.0652888,28.6402899 16.6729899,28.0427721 16.4814358,27.3474178 C16.6816969,27.7430586 16.8606742,28.1401312 17.1630008,28.4699114 Z M41.2315169,23.3451937 C40.9977177,25.1052942 40.4400092,26.8424866 39.5778746,28.4307769 C40.3581795,26.9255282 40.8671798,25.3019215 41.1029274,23.6611337 L41.2315169,23.3451937 Z M22.2153612,0.259758978 L21.8612529,0.211870451 C22.6654247,0.108837561 23.4798253,0.0682048713 24.2981225,0 C23.6702742,0.14173069 22.8071655,0.0445024692 22.2153612,0.259758978 Z M1.43666364,11.0812833 C1.57210593,12.318317 0.493404778,12.7984312 1.67562255,11.9828098 C2.30929901,10.5744431 1.42795663,11.5938505 1.43666364,11.0812833 Z M0.0397179959,16.8063823 C0.312053759,15.9816932 0.361393453,15.486307 0.465393788,15.0090563 C-0.287278408,15.9583079 0.119048485,16.1606622 0.0397179959,16.8063823 Z" transform="translate(22 -2)"/>
</svg>
