<svg xmlns="http://www.w3.org/2000/svg" width="68" height="48" viewBox="0 0 68 48">
  <path fill="#FFF" d="M68,24.0010313 C68,37.2527491 57.26,47.9947499 44.009375,48 L25.4564375,48 C22.4466875,48 20.007125,45.564909 20,42.5569987 L20,23.9841561 C20.009375,10.7367508 30.7505,0 43.999625,0 C57.2545625,0 68,10.7457509 68,24.0010313 Z M54.1592622,6.09977956 C53.2834412,5.86805979 52.610976,5.76 51.6650517,5.76 C45.4296194,5.76 40.3742902,10.8774302 40.3742902,17.1888449 L40.3742902,23.2466616 L35.6456084,23.2466616 C34.1711844,23.2466616 32.9796167,24.4195289 32.9805564,25.9093462 C32.9805564,27.3898415 34.158968,28.5676551 35.6177926,28.5676551 L39.532863,28.5684161 C39.9976496,28.5684161 40.3746661,28.9489083 40.3746661,29.418626 L40.3746661,34.6604771 C40.3688398,37.9880719 37.7022843,40.6834788 34.4149483,40.6834788 C33.3013776,40.6834788 33.0256631,40.5358478 32.2654279,40.5358478 C30.6684641,40.5358478 29.6,41.6194897 29.6,43.1094972 C29.6003759,44.3421018 30.6438434,45.4017726 31.9207378,45.7400302 C32.7965588,45.97175 33.469024,46.08 34.4149483,46.08 C40.6503806,46.08 45.7057098,40.9625698 45.7057098,34.6509648 L45.7057098,28.5933384 L50.4343916,28.5933384 C51.9088156,28.5933384 53.1003833,27.4204711 53.0994436,25.9306538 C53.0994436,24.4499683 51.921032,23.2723449 50.4622074,23.2723449 L46.547137,23.2715839 C46.0823504,23.2715839 45.7053339,22.8909014 45.7053339,22.4211838 L45.7053339,17.1793326 C45.7111602,13.8517379 48.3777157,11.156331 51.6650517,11.156331 C52.7786224,11.156331 53.0543369,11.3041522 53.8145721,11.3041522 C55.4115359,11.3041522 56.48,10.2203201 56.48,8.73050279 C56.4796241,7.49770799 55.4361566,6.43803714 54.1592622,6.09977956 Z"/>
</svg>
