<svg xmlns="http://www.w3.org/2000/svg" width="68" height="48" viewBox="0 0 68 48">
  <path fill="#FFF" fill-rule="evenodd" d="M68,23.9992365 C68,37.2535395 57.2546019,48 43.9995428,48 C30.7450109,48 20,37.2535395 20,23.9992365 C20,10.7447696 30.7450109,0 43.9995428,0 C57.2546019,0 68,10.7447696 68,23.9992365 Z M36.9098432,14.8374543 L31.5297219,9.93661185 C31.4008134,9.8524181 31.2311184,9.86986661 31.122821,9.9789265 L28.6170742,12.4842575 C28.5117228,12.5899358 28.4918734,12.7540728 28.5695245,12.8819995 L31.5031115,17.7134754 C30.9827895,18.5882462 30.5660745,19.5315088 30.2680137,20.5264642 L24.8821194,21.6467314 C24.7322716,21.6778135 24.6243025,21.8105401 24.6243025,21.9643157 L24.6243025,25.5073517 C24.6243025,25.6572008 24.7266006,25.7869813 24.8709942,25.8218806 L30.0984259,27.0996289 C30.3771822,28.2519587 30.8092751,29.3445232 31.3802001,30.3485317 L28.3545668,34.9626488 C28.2701549,35.0915583 28.2878221,35.2614736 28.3968812,35.3700979 L30.9018641,37.875429 C31.0072154,37.9805623 31.1716773,38.0008474 31.300148,37.9236335 L36.1378837,32.5725446 L36.1407216,32.5109767 C33.8498113,30.3943515 32.4152193,27.3644047 32.4152193,23.9996297 C32.4152193,20.2724892 34.1753994,16.9564718 36.9098432,14.8374543 Z M55.4558167,22.2652829 L62.5354233,20.7156137 C62.6743409,20.6492222 62.7476096,20.4951673 62.710703,20.345968 L61.8721992,16.9032293 C61.836651,16.7583042 61.7067277,16.6560562 61.5570793,16.6559287 L55.9047605,16.65188 C55.427732,15.7527674 54.8383485,14.9065877 54.1431444,14.1349263 L55.9846043,8.95107789 C56.0359116,8.80689625 55.9786137,8.64567976 55.847229,8.5657752 L52.8200874,6.72475016 C52.6920576,6.64688592 52.5280182,6.66685369 52.4231711,6.77209005 L48.6152059,10.5744953 C47.4858177,10.213895 46.3278162,10.0153615 45.1733364,9.98146203 L42.803245,4.9987665 C42.7369677,4.85966077 42.5826133,4.78646476 42.4331365,4.82320223 L38.9909676,5.66165838 C38.8464001,5.69704201 38.7436113,5.82701861 38.7428266,5.97690639 L40.2599404,12.9794642 L40.3153248,13.0134266 C41.4727536,12.6254316 42.7117178,12.415216 43.9997795,12.415216 C49.8085244,12.415216 54.61879,16.6900773 55.4558167,22.2652829 Z M55.3147523,26.4976554 C54.17245,31.6949618 49.5403157,35.5847803 43.9997795,35.5847803 C42.5398486,35.5847803 41.1429916,35.3146802 39.856441,34.8217304 L39.8242551,34.8393763 L37.9737108,41.8431124 C37.965113,41.9968405 38.0649466,42.1351677 38.2135077,42.1745608 L41.6352156,43.0950391 C41.779376,43.1335677 41.9315049,43.0688266 42.0035846,42.9376799 L44.7254078,37.9838136 C45.7431243,37.9979617 46.7684643,37.8881438 47.7793599,37.6497079 L51.4387764,41.7572345 C51.5405149,41.8715583 51.7094186,41.898852 51.8426605,41.8220844 L54.912592,40.0533343 C55.0424316,39.9785269 55.1038133,39.8250984 55.0619684,39.6825615 L53.559466,34.5152057 C54.4187639,33.6984035 55.1497285,32.7785737 55.7346545,31.7826571 L61.2430976,32.1008626 C61.3969338,32.1096501 61.5353403,32.0095169 61.5750156,31.8607918 L62.4952733,28.4395588 C62.5337747,28.2957891 62.4692487,28.143159 62.3382103,28.070388 L55.3147523,26.4976554 Z"/>
</svg>
