<svg xmlns="http://www.w3.org/2000/svg" width="68" height="48" viewBox="0 0 68 48">
  <path fill="#FFF" d="M67.9999858,18.2862512 C67.9999858,18.2862512 67.9999858,34.7299727 68,41.7006012 C68,44.3052179 65.6518482,46 62.9683866,46 L42.0366739,46 C33.5588565,46 26.680076,39.6589356 26.680076,31.8364671 L26.6611301,16.7331765 C26.6611301,14.3006164 26.2101408,12.5431327 23.657278,12.5431327 C21.9453346,12.5431327 20,12.5431327 20,12.5431327 L20,4 L43.8249566,4.1227136 L52.6339434,4.1227136 C61.1212338,4.1227136 67.9999858,10.4637874 67.9999858,18.2862512 Z M40,18 L40,30 L44,30 L44,19 C44,17.3431458 45.3431458,16 47,16 C48.6568542,16 50,17.3431458 50,19 L50,30 L54,30 L54,19 C54,17.3431458 55.3431458,16 57,16 C58.6568542,16 60,17.3431458 60,19 L60,30.8934572 C60,33.4069968 57.3540812,36 54.4173991,36 L40.3323426,36 C38.0661075,36 36,33.1575386 36,30.1891023 L36,8 L32,8 L32,31.0425646 C32,33.4873741 32.8543204,35.6312926 34.5163212,37.3649494 C35.9368728,38.8332523 37.6452804,39.7850387 39.5647824,40 L55.248262,39.9999609 C57.6582595,39.9999609 59.7755556,39.0615846 61.4836694,37.2405964 C62.9443319,35.6776369 63.7936064,33.8048642 64,31.6972007 L64,18 C64,14.6862915 61.3137085,12 58,12 L52,12 L46,12 C42.6862915,12 40,14.6862915 40,18 Z"/>
</svg>
