<svg xmlns="http://www.w3.org/2000/svg" width="68" height="48" viewBox="0 0 68 48">
  <path fill="#FFF" fill-rule="evenodd" d="M41.6211442,18.5707315 L41.6189384,18.5707315 C40.1469751,18.5707315 38.9482501,17.3530215 38.9466906,15.8567087 C38.9444847,14.3554121 40.1434126,13.1358935 41.6167126,13.1343048 C43.0908994,13.1343048 44.2894038,14.3520148 44.2911817,15.8483277 C44.2911817,17.3496265 43.0944641,18.5693717 41.6211641,18.5709582 L41.6211442,18.5707315 Z M48.8382531,16.5775185 C47.463781,16.5775185 46.3450634,15.4407152 46.3441567,14.0437587 C46.3419509,12.6431086 47.4606045,11.5044609 48.8359876,11.5033097 C50.2122729,11.5033097 51.3309906,12.6398774 51.3323472,14.0368362 C51.3323472,15.437484 50.2156766,16.576134 48.8405207,16.5775185 L48.8383148,16.5775185 L48.8382531,16.5775185 Z M46.785333,9.3329176 C46.785333,10.5839926 45.7883282,11.5981892 44.5584604,11.5981892 C43.3285926,11.5981892 42.3315878,10.5839926 42.3315878,9.3329176 C42.3315878,8.08184262 43.3285926,7.06764596 44.5584604,7.06764596 C45.7883282,7.06764596 46.785333,8.08184262 46.785333,9.3329176 Z M50.1701785,5.52726175 C50.1701786,6.27182109 49.7796942,6.95982231 49.1458172,7.33210199 C48.5119401,7.70438167 47.7309714,7.70438167 47.0970943,7.33210199 C46.4632173,6.95982231 46.0727329,6.27182109 46.0727329,5.52726175 C46.0727329,4.37627274 46.9899774,3.4432118 48.1214557,3.4432118 C49.2529341,3.4432118 50.1701785,4.37627274 50.1701785,5.52726175 Z M45.5382844,1.81221736 C45.5382844,2.45966026 45.1987328,3.05792218 44.6475354,3.38164363 C44.0963379,3.70536509 43.4172347,3.70536509 42.8660373,3.38164363 C42.3148398,3.05792218 41.9752882,2.45966026 41.9752882,1.81221736 C41.9752882,1.16477446 42.3148398,0.566512544 42.8660373,0.24279109 C43.4172347,-0.0809303634 44.0963379,-0.0809303634 44.6475354,0.24279109 C45.1987328,0.566512544 45.5382844,1.16477446 45.5382844,1.81221736 Z M34.174811,21.0195791 C35.0880971,20.0446791 36.5466728,20.1896385 37.5065449,20.7863394 C40.3154404,22.3439179 41.9289662,22.8540999 45,22.868102 C48.1753125,22.8825708 49.6914441,22.2918837 52.5001853,20.8134661 C53.4600574,20.1896385 54.778586,20.0446836 55.6918743,21.0195836 C58.1274507,24.1668848 60,27.4769914 60,31.6193879 C60,40.5965266 53.3030382,48 45,48 C36.6967125,48 30,40.5964884 30,31.6193879 C30,27.4778104 31.8695757,24.0590757 34.174811,21.0195791 Z M36.1764706,23.5412778 C34.5835566,25.8228503 32.8676471,28.6518897 32.8676471,31.6193879 C32.8676471,38.9797714 38.4207088,44.8585127 45,44.8585127 C51.5789757,44.8585127 56.9117647,38.9797332 56.9117647,31.6193879 C56.9117647,28.6479673 55.4129779,25.8210663 53.8235294,23.5412778 C50.9106485,25.1787758 48.3184412,26.0095892 45,26.0095892 C41.6843625,26.0095892 39.0878559,25.178787 36.1764706,23.5412778 Z"/>
</svg>
