<svg xmlns="http://www.w3.org/2000/svg" width="68" height="48" viewBox="0 0 68 48">
  <g fill="none" fill-rule="evenodd">
    <circle cx="44" cy="24" r="23" stroke="#FFF" stroke-width="2"/>
    <path fill="#FFF" d="M27.253487,39.3881007 C23.556083,35.3339049 21.3014033,29.9411449 21.3014033,24.0217763 C21.3014033,18.2614995 23.4365159,12.9999051 26.9585093,8.98522456 C26.9830517,8.99310757 27.0061954,9.00070361 27.0279247,9.00800493 C27.0290006,8.96501357 27.0535962,8.90395859 27.0965333,8.82932531 C27.8078478,8.0331977 28.574207,7.28729766 29.3896317,6.59760425 C31.4953718,6.91321975 47.2055185,9.37692801 54.0071415,13.339833 C54.8869474,13.8546521 55.321747,14.401724 55.864328,14.9569611 C57.834195,16.9937832 60.4385021,25.4652319 60.6067063,27.3836578 C60.5050489,27.4236676 60.2637657,27.6033031 59.9355226,27.8204988 C58.2763434,28.9832307 54.3917248,31.7026678 49.4080634,31.2588864 C44.9314641,30.8628717 39.0835107,28.2949 32.0328158,23.6492799 C32.347178,24.3841526 33.8173315,27.858059 34.1561895,28.5598624 C35.176846,29.0906037 44.968616,34.0799809 49.8326565,33.9815896 C53.7503443,33.8999371 57.9403433,31.9896764 59.6166695,30.9808595 L60.1449613,30.8828765 C60.2964267,31.0016809 60.2719309,31.2258171 60.2302882,31.4377054 C60.127406,31.919047 59.8922467,32.7968115 59.7326161,33.2136477 L59.5982977,33.5529139 C59.406006,34.0669165 59.2222878,34.5445837 58.8670994,34.838941 C57.8795122,35.7367105 56.3036186,36.45117 53.8340381,37.5249006 C50.0167829,39.1946946 43.8230311,40.2561774 38.0734691,40.219842 C36.0141926,40.1741166 34.0251372,39.9454895 32.2777733,39.7413582 C30.3970321,39.5290396 28.6993785,39.3369857 27.253487,39.3881007 Z M40.6051054,20.7008075 C40.4720118,24.6846339 43.5997115,28.0409606 47.5798635,28.1875269 C49.5211521,28.2528489 51.3599668,27.5710504 52.7725554,26.244197 C54.1810613,24.9340823 54.9894213,23.1418095 55.0645416,21.2107275 C55.2013096,17.2301672 52.0703437,13.8660835 48.0852926,13.7235998 C46.1529857,13.6623604 44.3096801,14.3437507 42.8970916,15.6628471 C41.4853195,16.9774527 40.6765513,18.7697254 40.6051054,20.7008075 Z M48.0244615,15.853914 C50.8092206,15.9527136 52.9889346,18.2920582 52.8950342,21.0760008 C52.8521666,22.4183682 52.2863147,23.6635691 51.3028101,24.5866508 C50.3172642,25.5052417 49.0291957,25.9829089 47.6782548,25.9420826 C44.9000279,25.8396087 42.7194974,23.496998 42.8133977,20.7122388 C42.854224,19.364564 43.4319156,18.1201797 44.4113375,17.2015888 C45.3911677,16.282998 46.672704,15.8053308 48.0244615,15.853914 Z M46.6126894,19.8801997 C46.6126894,20.7008075 47.6121162,21.3703581 48.8495602,21.3703581 C50.0861875,21.3703581 51.0884722,20.7008075 51.0892887,19.8801997 C51.0892887,19.0518349 50.0870041,18.3859586 48.8495602,18.3859586 C47.6121162,18.3859586 46.6126894,19.0518349 46.6126894,19.8801997 Z"/>
  </g>
</svg>
