<svg xmlns="http://www.w3.org/2000/svg" width="68" height="48" viewBox="0 0 68 48">
  <path fill="#FFF" fill-rule="evenodd" d="M68.000287,24.0002303 C68.000287,37.2545678 57.254854,47.9999997 43.9997475,47.9999997 C30.7449476,47.9999997 20.0001341,37.2545678 20.0001341,24.0002303 C20.0001341,10.7449707 30.7449476,0 43.9997475,0 C57.254854,0 68.000287,10.7449707 68.000287,24.0002303 Z M50.5580269,12.6405797 C52.0904941,13.5255781 54.0495271,13.0006448 54.9339138,11.4686395 C55.8187538,9.93601869 55.2942807,7.97713977 53.7616604,7.09229605 C52.2293474,6.20776059 50.2704674,6.73253978 49.3856274,8.26516057 C48.5010941,9.79716536 49.0258674,11.7560448 50.5580274,12.6405797 Z M44.0002072,33.3599001 C42.5912003,33.3599001 41.2559342,33.046634 40.0573608,32.4890649 L37.8309337,36.478867 C39.6906739,37.3997326 41.7844072,37.9200478 44.0002072,37.9200478 C45.2888339,37.9200478 46.5348205,37.7414776 47.7189272,37.413587 C47.9284338,36.1266537 48.6925938,34.9405502 49.9108674,34.2370467 C51.1269869,33.53493 52.5344541,33.4653492 53.7527335,33.9257817 C56.1220135,31.5960633 57.6637207,28.4264505 57.8881601,24.8966196 L53.3215469,24.8301199 C52.9012935,29.6114756 48.8900941,33.3599001 44.0002072,33.3599001 Z M44.0002072,14.639945 C48.8900941,14.639945 52.9012935,18.3891391 53.3215469,23.1698815 L57.8881601,23.1032282 C57.6634071,19.5737061 56.1217068,16.4040933 53.7521202,14.0745285 C52.5339938,14.5346533 51.1266802,14.4649184 49.9104071,13.7626469 C48.6922802,13.0594517 47.9282802,11.8735024 47.7187736,10.5864149 C46.5348205,10.2588326 45.2888339,10.0801088 44.0002072,10.0801088 C41.7844072,10.0801088 39.6908339,10.6002699 37.8312403,11.5214432 L40.0575139,15.5107829 C41.2559336,14.9532144 42.5912003,14.6399477 44.0002072,14.6399477 Z M34.6403875,23.9999231 C34.6403875,20.8332351 36.2141075,18.0363104 38.6203342,16.3426693 L36.2778409,12.4184459 C33.473834,14.2920421 31.3878009,17.1559306 30.5214276,20.5105786 C31.5335806,21.3355397 32.1802809,22.5918388 32.1802809,24.0002303 C32.1802809,25.4084687 31.5334276,26.6647679 30.521274,27.4895753 C31.3874942,30.8443764 33.4735273,33.7082659 36.2776873,35.5818617 L38.6203342,31.6574846 C36.2141075,29.9639972 34.6403875,27.1670724 34.6403875,23.9999231 Z M50.5584941,35.3591118 C49.0258674,36.243955 48.5010941,38.2026803 49.3857805,39.7346851 C50.2706274,41.2673054 52.2293474,41.7923928 53.7619671,40.9075496 C55.2941271,40.0228595 55.8190604,38.0639811 54.9342204,36.5315145 C54.0496807,34.9996633 52.0906471,34.4745758 50.5584941,35.3591118 Z M27.6804809,20.7961359 C25.910481,20.7961359 24.4762276,22.2302351 24.4762276,24.0002303 C24.4762276,25.7697642 25.910481,27.204018 27.6804809,27.204018 C29.4498607,27.204018 30.8842676,25.7697642 30.8842676,24.0002303 C30.8842676,22.2302351 29.4498607,20.7961359 27.6804809,20.7961359 Z"/>
</svg>
