<svg xmlns="http://www.w3.org/2000/svg" width="68" height="48" viewBox="0 0 68 48">
  <path fill="#FFF" fill-rule="evenodd" d="M22.0782925,39.7557673 C20.498371,38.2316814 19.7501148,36.0180437 20.0743842,33.8274076 C21.1663217,26.4506515 23.4951308,19.9538813 27.0608113,14.3370972 C30.4176099,9.04935121 34.8153854,4.62850104 40.2541378,1.07454664 C42.4935742,-0.388813772 45.3741014,-0.3550057 47.5797773,1.16052422 C53.3849054,5.1492607 57.95309,9.76737234 61.284331,15.0148592 C64.7510983,20.4758316 66.9686083,26.7608005 67.936861,33.869766 C68.2312159,36.0309359 67.4851858,38.2041555 65.9324548,39.7086986 C60.2278717,45.2362329 52.9107305,48 43.9810314,48 C35.0767147,48 27.7758017,45.2519224 22.0782925,39.7557673 Z M48.1700387,12 C46.0977578,21.4608558 42.0410788,30.0674812 36,37.8198782 C38.2104704,39.2014006 40.8237737,40 43.6238938,40 C44.9415111,40 46.2177625,39.8231707 47.4301409,39.4919841 C50.303562,32.9895147 50.7673523,23.9035546 48.8215118,12.2341039 C48.6068005,12.1510256 48.3895951,12.0729434 48.1700387,12 Z M52,14 C54.3700009,18.845585 55.5490343,25.5122516 55.5371001,34 C57.0872448,31.6923166 58,28.8623715 58,25.804531 C58,20.8579606 55.6114571,16.5077582 52,14 Z M44.4664534,12 C36.4768518,12 30,18.2022525 30,25.8531186 C30,27.2977241 30.2309092,28.6906843 30.6593115,30 C40.1139124,25.0719848 43.983125,16.5562823 46,12.0769152 C45.4960783,12.0260702 44.9844451,12 44.4664534,12 C44.694783,12 44.9218772,12.0050655 45.1476199,12.0150856 C42.062913,14.7497987 37.6246075,17.1112168 31.8327034,19.09934 C34.3073314,14.8635364 39.0376794,12 44.4664534,12 Z"/>
</svg>
