<svg xmlns="http://www.w3.org/2000/svg" width="68" height="48" viewBox="0 0 68 48">
  <path fill="#FFF" fill-rule="evenodd" d="M43.9949203,30.8331019 C37.3347136,35.7183423 21.2422467,37.9899395 20.6777046,24.9828279 C23.7494601,40.3038037 44.2761476,11.1325245 44.9174972,18.5180811 C45.5892542,26.251318 50.5925041,25.9938226 43.9949203,30.8331019 Z M21.8570925,45.8713163 C15.2097851,40.968021 8.10300387,26.1751321 20.1473912,21.612102 C6.70424706,29.3042319 40.4506419,40.0542901 33.7108829,42.954067 C26.6538515,45.9904625 28.4418395,50.728351 21.8570925,45.8713163 Z M0.887783651,29.2018381 C3.43975999,21.2861762 15.1399356,9.87206143 23.1483899,20.0591376 C11.7682316,9.49217502 12.0979136,45.3072646 7.29111189,39.7140534 C2.25804626,33.8572563 -1.64016591,37.0429173 0.887783651,29.2018381 Z M10.0683205,3.86178401 C18.2928317,3.87291652 32.6306931,11.6114572 25.5357428,22.4703444 C31.9456226,8.2475763 -1.59694408,19.6325036 2.17203007,13.2757587 C6.11841578,6.61978409 1.92120962,3.85075135 10.0683205,3.86178401 Z M36.7076741,4.86851279 C39.2387203,12.7910639 36.3998526,28.9878968 24.0065554,25.5120252 C39.348154,27.2887334 18.2880056,-1.49015071 25.4241653,0.174517398 C32.8962463,1.9175497 34.2004443,-2.97945553 36.7076741,4.86851279 Z" transform="translate(20 2)"/>
</svg>
