<svg xmlns="http://www.w3.org/2000/svg" width="68" height="48" viewBox="0 0 68 48">
  <path fill="#FFF" d="M44,1.52259158e-15 C30.7451429,1.52259158e-15 20,10.7451429 20,24 C20,37.2548571 30.7451429,48 44,48 C57.2548571,48 68,37.2548571 68,24 C68,10.7451429 57.2548571,0 44,0 Z M44,1.99885714 C54.0765714,1.99885714 62.5725714,8.77028571 65.1765714,18.0102857 C62.9394286,22.6388571 59.7422857,26.8045714 55.8594286,30.1748571 C53.9908571,31.7914286 51.9508571,33.2331429 49.6982857,34.248 C47.4457143,35.2628571 44.9668571,35.8388571 42.4982857,35.6982857 C40.6468571,35.5902857 38.8125714,35.0742857 37.1942857,34.1725714 C41.4971429,31.8411429 45.3765714,28.7348571 48.5531429,25.0148571 C50.6445714,22.572 52.4617143,19.7948571 53.1645714,16.6611429 C53.5211429,15.0942857 53.576,13.4554286 53.2502857,11.8817143 C52.9245714,10.308 52.1977143,8.81314286 51.0971429,7.64057143 C50.0222857,6.49885714 48.6114286,5.68628571 47.0994286,5.27142857 C45.5908571,4.85485714 43.9794286,4.82228571 42.4365714,5.10342857 C39.3508571,5.66914286 36.5908571,7.46228571 34.3845714,9.68914286 C30.488,13.6148571 28.0794286,19.1554286 28.5217143,24.6685714 C28.7445714,27.4251429 29.6668571,30.1337143 31.2474286,32.4 C31.6022857,32.9074286 31.9914286,33.3891429 32.4062857,33.8451429 C30.1005714,34.656 27.7091429,35.2302857 25.292,35.5542857 C23.2125714,32.1942857 22.0108571,28.2342857 22.0108571,23.9948571 C22.0108571,11.8405714 31.8577143,1.99371429 44.0085714,1.99371429 L44,1.99885714 Z M44.1371429,6.43885714 C45.6868571,6.43885714 47.2434286,6.90857143 48.4777143,7.84457143 C49.5885714,8.68457143 50.4148571,9.87428571 50.8777143,11.1874286 C51.3457143,12.5005714 51.4657143,13.9251429 51.3062857,15.3102857 C50.9891429,18.0788571 49.592,20.6177143 47.9051429,22.836 C44.9171429,26.7617143 40.9451429,29.904 36.5291429,32.1051429 C36.0782857,32.328 35.6205714,32.544 35.1577143,32.7497143 C34.1977143,31.9097143 33.3748571,30.9154286 32.744,29.8011429 C31.4325714,27.4765714 31.0005714,24.7182857 31.2525714,22.0628571 C31.5097143,19.4057143 32.4182857,16.848 33.644,14.4771429 C35.0634286,11.7291429 36.9988571,9.12857143 39.7074286,7.632 C41.0617143,6.88285714 42.5925714,6.432 44.1388571,6.432 L44.1371429,6.43885714 Z M65.8022857,21.048 C65.9308571,22.0114286 65.9994286,22.9937143 65.9994286,23.9931429 C65.9994286,36.144 56.156,45.9942857 44.0051429,45.9942857 C37.1822857,45.9942857 31.0794286,42.888 27.0508571,38.0108571 C29.54,37.4451429 31.9742857,36.6308571 34.3091429,35.5971429 C35.3325714,36.372 36.4588571,37.0097143 37.6588571,37.4691429 C41.1097143,38.7925714 45.0302857,38.6005714 48.524,37.392 C52.016,36.1817143 55.1154286,34.0148571 57.8154286,31.4862857 C61.0331429,28.4794286 63.7468571,24.9342857 65.8108571,21.0462857 L65.8022857,21.048 Z"/>
</svg>
