<svg xmlns="http://www.w3.org/2000/svg" width="68" height="48" viewBox="0 0 68 48">
  <path fill="#FFF" d="M67.4925483,28.9328709 C63.9876328,33.6598275 57.5144936,36.1861281 49.803125,37.3065 C41.75675,38.4756 32.426375,38.1282375 24.101,37.417095 C24.4997375,38.012745 24.9374,38.590245 25.38785,39.147795 C33.40235,39.783195 42.2321,40.0428825 50.03585,38.909025 C56.5432866,37.9635045 62.4239281,36.0453644 66.4584973,32.4810225 C63.0318445,41.5504389 54.2691101,48 44,48 C30.745166,48 20,37.254834 20,24 C20,10.745166 30.745166,0 44,0 C57.254834,0 68,10.745166 68,24 C68,25.6908267 67.8251512,27.3408153 67.4925483,28.9328709 Z M45.5,14.625 C49.1144375,22.070625 49.1177,29.437125 47,34.875 C49.981925,34.8930375 54.848,35.2274137 60.125,32.625 C55.78775,22.72125 45.5,14.625 45.5,14.625 Z M36.125,1.875 C33.686975,11.8245 26.66825,24.06825 22.25,31.875 L26.155625,32.81085 C28.61975,33.1628662 31.65425,33.510375 34.600625,33.81645 C40.004375,34.3779 44.31575,34.8088125 45.125375,34.8749625 C45.009725,33.371625 43.8975875,17.0249625 43.625375,13.8749625 C40.897925,8.9332125 38.685875,6.3794625 36.125375,1.8749625 L36.125,1.875 Z M52.625,19.125 C54.8679875,20.628 57.005,21.9996 58.625,23.625 C60.8187875,25.8262875 61.939925,28.792125 61.625,31.875 C64.5643625,30.3981 66.5075,27.93525 67.625,25.875 C65.670725,24.075375 62.2775,22.29495 58.625,21 C56.611025,20.2859625 54.490625,19.6377 52.625,19.125 Z"/>
</svg>
