<svg xmlns="http://www.w3.org/2000/svg" width="68" height="48" viewBox="0 0 68 48">
  <path fill="#FFF" fill-rule="evenodd" d="M43.9999558,0 C30.7439506,0 20,10.7482382 20,24.0027819 C20,24.3106883 20.0048995,24.6162413 20.0164484,24.921336 C27.6827821,19.5110172 40.7554227,10.5958632 43.9945314,10.3611507 C45.068139,9.00140189 48.7345734,7.92063109 49.4026056,7.94447851 L47.4887126,10.3392804 C47.4887126,10.3392804 47.4280285,12.7873234 46.7122434,13.2644466 C53.3943682,17.7295645 56.6013325,33.7877455 57.9658142,43.516546 C64.0415708,39.162092 67.9999991,32.0473916 67.9999991,24.0027819 C68.0034988,10.7482382 57.2595482,0 44.002843,0 L43.9999558,0 Z M42.8133442,21.6845262 C41.0158498,21.738154 37.328015,27.1087896 33.1619344,32.8602682 C31.1599375,35.6241014 29.091377,38.5068917 27.1851832,41.1272555 C31.5157827,45.3790764 37.4511855,48 43.9999558,48 C48.6944323,48 53.074587,46.6551633 56.7737082,44.3257835 C53.9274712,35.6245388 48.5155648,21.7283019 42.9773907,21.6954089 C42.923391,21.6859084 42.8713336,21.6827416 42.8133442,21.6844737 L42.8133442,21.6845262 Z M29.3560562,23.8770187 C27.7097645,23.8645789 23.6357424,25.280188 20.1421211,26.6272223 C20.4972664,29.8923236 21.5038031,32.9602069 23.0347986,35.6979532 C23.7362701,34.6381131 24.4685035,33.5446873 25.1947526,32.4775548 C27.9686517,28.4016239 30.6543593,24.8012242 30.023196,24.0574752 C29.910437,23.933061 29.6795296,23.8794892 29.3560562,23.877045 L29.3560562,23.8770187 Z M33.6868831,25.9273715 C32.3582204,26.1287116 27.5590517,32.1098532 23.7456841,36.8844102 C24.3656661,37.8570208 25.052159,38.7804284 25.8017333,39.6510077 C29.7213505,33.2335861 34.1087844,26.2375979 33.87282,25.9492419 C33.8221099,25.9253857 33.7584862,25.9165238 33.6868831,25.9273715 Z"/>
</svg>
