<svg xmlns="http://www.w3.org/2000/svg" width="68" height="48" viewBox="0 0 68 48">
  <path fill="#FFF" fill-rule="evenodd" d="M68,23.9992365 C68,37.2535395 57.2546019,48 43.9995428,48 C30.7450109,48 20,37.2535395 20,23.9992365 C20,10.7447696 30.7450109,0 43.9995428,0 C57.2546019,0 68,10.7447696 68,23.9992365 Z M62,26.4233983 L62,21.5766017 L59.3797143,20.645811 C58.382,20.288408 57.5771429,19.5273195 57.1708571,18.5476752 L57.1708571,18.5451039 C56.7645714,17.5628884 56.7902857,16.4546818 57.248,15.4930362 L58.4437143,12.9860724 L55.016,9.55860296 L52.5062857,10.7516606 C51.5445714,11.2067709 50.4362857,11.2350546 49.454,10.8287979 L49.4514286,10.8287979 C48.4742857,10.4225412 47.7105714,9.62031283 47.3531429,8.62009856 L46.4248571,6 L41.5751429,6 L40.6442857,8.7769445 C40.2894286,9.77715877 39.5257143,11.1424898 38.5485714,11.1424898 L38.546,11.1424898 C37.5637143,11.1424898 36.458,11.3636169 35.4962857,10.9085065 L32.9865714,9.63831155 L29.5562857,13.0246411 L30.7494286,15.5136062 C31.2045714,16.4752518 31.2328571,17.5731733 30.8265714,18.5553889 L30.8265714,18.5528177 C30.4228571,19.5298907 29.6205714,20.2909792 28.6202857,20.6483823 L26,21.5766017 L26,26.4208271 L28.6202857,27.354189 C29.6205714,27.7090208 30.4228571,28.4726805 30.8291429,29.4497536 L30.8291429,29.4523248 C31.2354286,30.4345404 31.2097143,31.5427469 30.752,32.5043925 L29.5588571,35.0139276 L32.9865714,38.441397 L35.4962857,37.0914935 C36.4554286,36.6363831 37.5637143,36.8575102 38.546,36.8575102 L38.5485714,36.8575102 C39.5282857,36.8575102 40.2894286,38.2254125 40.6442857,39.2230555 L41.5751429,42 L46.4248571,42 L47.3505714,39.3979001 C47.7105714,38.3899721 48.4794286,37.5774588 49.4668571,37.1660596 C50.4414286,36.7623741 51.5394286,36.7906578 52.4882857,37.2431969 L55.016,38.4439683 L58.4437143,35.0164988 L57.2505714,32.5069638 C56.7954286,31.5478894 56.7671429,30.4396829 57.1734286,29.4600386 L57.1734286,29.4574673 C57.5797143,28.477823 58.3845714,27.7167345 59.3848571,27.3593315 L62,26.4233983 Z M44,33 C39.029,33 35,28.974 35,24 C35,19.029 39.029,15 44,15 C48.968,15 53,19.029 53,24 C53,28.974 48.971,33 44,33 Z"/>
</svg>
