<svg xmlns="http://www.w3.org/2000/svg" width="68" height="48" viewBox="0 0 68 48">
  <path fill="#FFF" fill-rule="evenodd" d="M67.9999943,23.63077 C67.9999943,36.681684 57.2548317,47.26154 43.9999971,47.26154 C30.7451626,47.26154 20,36.681684 20,23.63077 C20,10.579856 30.7451626,0 43.9999971,0 C57.2548317,0 67.9999943,10.579856 67.9999943,23.63077 Z M51.856235,8.8669061 C51.772355,8.91464026 51.758915,8.93945256 51.781235,8.9037701 C50.966291,10.2553674 50.945291,12.0382617 50.581235,13.6299239 C50.5816259,13.6422089 50.5816259,13.654503 50.581235,13.6667879 C50.575235,13.6900643 50.587235,13.7174759 50.581235,13.7406341 C50.404523,15.4493632 49.832447,17.1919907 50.243735,18.8360187 C50.259908,18.8716102 50.2724496,18.9086957 50.281175,18.9467289 C50.284775,18.9586624 50.277575,18.9717775 50.281175,18.9835929 C50.287175,18.9930452 50.275175,19.0115953 50.281175,19.0204569 C50.288375,19.0310907 50.311535,19.0110046 50.318615,19.0204569 C50.406335,19.139296 50.513471,19.2282895 50.581115,19.2419953 C50.629475,19.2514476 50.713367,19.2467215 50.881115,19.1312852 C51.062639,19.0068692 51.165311,18.7576 51.218615,18.4297467 C51.2392845,18.3901706 51.2644452,18.35303 51.293615,18.3190366 C51.2932241,18.3067516 51.2932241,18.2944575 51.293615,18.2821726 C51.3023404,18.2441394 51.314882,18.2070538 51.331055,18.1714624 C51.342976,18.158636 51.3554682,18.146336 51.368495,18.1345984 C52.086503,15.3143724 52.572419,12.3547249 52.380995,9.45767533 C52.356515,9.31365761 52.329635,9.21333318 52.193495,9.05152149 C52.103135,8.94435595 52.029047,8.88280961 52.005995,8.8669061 C51.982955,8.85095533 52.014395,8.86217995 51.930995,8.8669061 C51.9185181,8.86729095 51.9060319,8.86729095 51.893555,8.8669061 C51.862715,8.87045072 51.874595,8.86618536 51.856115,8.8669061 L51.856235,8.8669061 Z M58.4669493,10.2488841 C57.2233173,10.843966 56.5867173,12.2638444 55.7294493,13.4242687 C55.7209801,13.4623718 55.7084299,13.4994828 55.6920093,13.5349789 C55.6814199,13.5604804 55.6689049,13.5851649 55.6545693,13.608825 C54.5677413,15.5053242 53.1810933,17.3984679 53.0295693,19.5903635 C53.0287173,19.6027697 53.0303493,19.6149395 53.0295693,19.6272275 C53.0461293,19.9579992 53.2385133,20.1376285 53.4420693,20.1810737 C53.6419653,20.223609 54.0114333,20.1108903 54.1545693,19.885689 C54.1664522,19.8728269 54.1789461,19.8605251 54.1920093,19.848825 C54.1915921,19.8365405 54.1915921,19.8242456 54.1920093,19.811961 C54.1915921,19.7996765 54.1915921,19.7873816 54.1920093,19.775097 C56.1672093,17.1027761 57.6530013,13.9561501 58.8795093,10.8766355 C58.8790921,10.8643509 58.8790921,10.8520561 58.8795093,10.8397715 C58.9643493,10.6375748 58.9924293,10.5858234 58.9169493,10.4336177 C58.8947493,10.388601 58.6621053,10.2342803 58.5419493,10.2490023 C58.5223893,10.257273 58.4861493,10.23955 58.4669493,10.2490023 L58.4669493,10.2488841 Z M39.1118407,11.130489 C38.9111287,11.1672349 38.6125207,11.3442294 38.3993407,11.4258737 C37.6453567,11.707517 37.2293407,12.3439054 37.0493407,13.0874121 C36.8660527,13.8481102 36.9271447,14.6952969 37.0493407,15.5612583 C37.1715127,16.4254946 37.3463647,17.3176034 37.5368407,17.9981814 C37.7005807,18.5870129 37.8178207,18.873465 37.8743407,19.0689506 L37.8743407,19.2166429 C37.8743407,19.2810367 37.8430207,19.2757198 37.7993407,19.327353 C37.7753407,19.3402318 37.8233407,19.4011992 37.7993407,19.4011992 C37.7449807,19.4420804 37.6794607,19.4750454 37.6118407,19.4750454 C37.4786287,19.4833161 37.3745047,19.435582 37.2368407,19.4011992 C37.1430007,19.3798134 37.0209007,19.305849 37.0493407,19.327353 C37.0057807,19.3015955 36.9277807,19.2986417 36.8993407,19.2535069 C36.8993407,19.2707574 36.9256207,19.2704029 36.8993407,19.2166429 C36.8688607,19.1607561 36.8349007,19.0200349 36.7869007,18.9212583 C36.6799807,18.697404 36.5960047,18.4380681 36.4494007,18.1089506 C36.1568287,17.4535276 35.7803527,16.6484627 35.3619007,15.893566 C34.9419127,15.1356681 34.4472247,14.4479064 33.8994007,13.973566 C33.6255967,13.7366202 33.2876167,13.4991192 32.9619007,13.4197198 C32.6475127,13.342329 32.2744567,13.4079044 31.9494007,13.5674121 C31.1094367,14.0262744 30.6339727,14.7775674 30.4494007,15.5612583 C30.2639287,16.3569772 30.3516007,17.2732957 30.4868407,18.0720275 C30.6242887,18.8690225 30.8371087,19.5262296 30.9743407,20.0658737 C31.0331407,20.2933671 31.1047807,20.5058195 31.1243407,20.6197198 C31.1243407,20.7325567 31.0776607,21.0271143 31.0493407,21.1366429 C30.9075247,21.620223 30.5626327,22.4289506 30.5618407,22.4289506 C30.5618407,22.4289506 24.0183127,39.5410894 38.0618407,38.3427967 C38.1775207,38.334526 38.4402607,38.2689506 38.5493407,38.2689506 C41.3072647,37.7222291 43.9170367,36.9010953 46.2368407,35.9797198 C46.6926007,35.7646798 47.2905007,35.551034 47.9618407,35.2412583 C49.3044607,34.6219194 50.9912527,33.8282919 52.6118407,32.9520275 C54.2330767,32.0751015 55.7372887,31.140729 56.8868407,30.1458737 C58.0383607,29.1495177 58.8788047,28.0577289 58.7243407,26.970489 C58.4799727,25.2177358 57.2977927,23.9151842 55.7243407,22.9089506 C54.1449847,21.8990542 52.1756047,21.2020529 50.2118407,20.693566 C48.2489287,20.1852918 46.3429207,19.7719423 44.8868407,19.5489506 C44.1590167,19.4372952 43.4769607,19.4048029 43.0493407,19.3274121 C42.9228127,19.3060263 42.8552407,19.27507 42.7868407,19.253566 C42.7500007,19.2488398 42.7467607,19.2380878 42.7118407,19.216702 C42.6682807,19.1909444 42.5881207,19.1879906 42.5618407,19.1428558 C42.5378407,19.099966 42.5618407,19.0445518 42.5618407,18.9951635 C42.5618407,18.9759044 42.5616367,18.9470749 42.5618407,18.9213174 L42.5618407,17.8505481 C42.5378407,16.9667574 42.4850407,15.7999527 42.2993407,14.7120866 C42.1116967,13.6196952 41.8222927,12.5749316 41.2118407,11.8690097 C40.8490207,11.4490318 40.3353847,11.173438 39.7118407,11.1305481 C39.5242087,11.1090441 39.3145207,11.0940386 39.1118407,11.1305481 L39.1118407,11.130489 Z"/>
</svg>
